<svg width="241" height="224" viewBox="0 0 241 224" fill="none" xmlns="http://www.w3.org/2000/svg">
<path d="M130.374 15.2597C130.282 14.7717 130.219 14.2667 130.185 13.7557C129.692 6.6727 135.024 0.530695 142.107 0.0316955C149.196 -0.462305 155.337 4.8767 155.831 11.9597C156.325 19.0427 150.992 25.1847 143.91 25.6837C143.462 25.7177 143.019 25.7237 142.584 25.7067C142.297 25.7807 142.125 25.8157 141.878 26.0337C141.149 27.1697 143.732 26.9577 141.976 31.9227C141.976 31.9227 141.964 32.4677 141.769 33.0127C141.631 34.9187 140.897 40.5667 140.793 43.5747C141.166 44.0107 141.27 44.2227 141.23 45.2797C141.063 46.7087 140.736 50.2107 140.208 52.4547C139.761 54.3777 138.975 54.7447 138.343 55.2157C137.453 59.1997 137.218 62.4997 134.934 67.3387C134.727 71.0067 134.469 72.0057 133.7 73.7967C133.614 79.1977 133.987 80.0017 130.343 88.5537C129.402 92.5537 130.297 95.3207 131.29 99.4767C132.306 103.748 135.124 105.533 135.543 109.907C136.53 120.207 136.283 127.221 134.073 135.297L136.002 139.866C138.396 140.963 144.336 143.965 141.042 148.717C145.68 151.156 152.688 153.745 158.468 158.688C160.793 160.623 163.249 162.735 165.453 165.214C169.649 165.868 169.201 166.201 172.312 168.112C181.456 173.719 196.121 184.843 204.622 192.718C206.086 193.573 206.683 194.188 207.865 194.808C208.049 195.163 208.1 195.244 208.06 195.341C207.653 196.369 207.669 196.398 207.302 197.218C207.761 197.724 208.616 198.199 209.127 198.642C209.604 198.791 209.604 198.562 210.425 198.361C211.492 199.36 212.813 200.164 213.288 200.118C214.735 199.75 214.488 200.049 215.711 198.682C216.152 198.229 216.888 198.688 216.888 198.688C217.347 198.149 218.334 197.075 219.649 196.3C220.699 195.68 222.703 195.612 222.703 195.612C223.374 195.618 223.248 196.306 223.19 196.53C222.433 196.921 220.826 197.351 219.924 198.016C217.961 200.048 216.423 202.787 216.423 202.787C220.377 202.247 222.806 203.228 226.1 202.85C227.897 202.747 229.223 202.862 231.111 201.496C231.111 201.496 232.925 200.205 234.549 199.521C236.128 198.833 237.626 199.2 239.015 200.21C239.996 201.317 240.587 201.323 239.095 202.885C238.556 203.493 237.775 204.17 236.782 205.152C235.037 206.875 232.689 209.175 230.256 211.076C227.793 212.999 224.998 214.726 223.253 215.518C218.851 218.681 219.89 217.854 216.429 220.989C215.992 221.379 214.833 222.079 214.271 222.452C212.905 223.348 212.48 222.601 211.59 220.96C211.59 220.96 211.182 220.346 210.511 219.037C209.776 217.608 209.225 215.973 209.448 216.001C208.628 215.897 204.936 211.569 204.926 210.64C204.145 210.462 200.816 207.237 200.696 206.622L197.746 204.257C194.371 204.957 193.596 202.862 184.682 196.537C183.666 196.519 182.094 195.969 179.843 194.299C175.82 191.078 166.171 183.789 164.535 182.956C162.778 182.061 160.678 181.218 159.391 180.155C157.463 179.8 156.407 179.598 155.443 179.329C154.456 179.059 153.56 178.709 151.063 178.376C147 177.871 142.786 176.189 138.774 174.181C136.875 173.28 135.221 172.821 133.586 172.119C129.918 170.57 126.773 169.175 124.336 168.612C123.406 168.52 118.986 167.194 116.668 165.84C115.864 165.427 115.399 165.031 114.871 164.91C113.654 164.629 112.873 165.111 112.323 165.295C109.35 166.845 106.566 168.182 103.994 169.566C101.6 170.846 99.3957 172.177 97.0597 173.521C94.9527 174.738 92.5187 175.885 90.0167 177.08C90.0167 177.08 82.8817 180.656 78.9847 182.045C75.6037 184.806 68.6927 189.581 64.4747 191.946C62.3857 192.939 58.3277 195.51 56.4557 196.085C55.3877 196.945 51.5827 199.66 48.6037 201.899C46.3017 203.621 44.5627 205.073 44.5627 205.073C43.2257 206.272 43.3167 206.841 40.7747 205.761C40.0687 206.341 39.5237 206.702 39.0697 207.035C37.2337 208.367 37.0777 208.046 36.4067 208.011C35.1267 209.119 34.9657 208.545 33.8467 209.82C33.1117 210.957 33.8637 210.686 32.3137 211.238C31.9867 211.364 31.8317 211.759 31.5797 211.978C30.3337 213.005 30.3287 215.904 27.3437 216.111C25.6157 217.344 26.0577 218.832 24.7377 218.768C24.8187 220.048 22.4017 221.914 21.9657 221.908C18.1597 223.222 17.8957 220.422 13.3267 222.511C12.7357 222.781 11.8687 223.528 10.7267 223.745C8.71766 224.124 6.28966 223.727 4.80866 222.58C2.47766 220.783 0.33166 217.316 0.33166 217.316C-0.40934 215.565 0.0216594 214.458 2.33466 212.804C3.29866 212.19 3.47666 211.731 5.09566 211.621C5.89966 211.317 5.68066 211.782 7.11666 211.266C7.94866 210.967 7.94866 211.18 9.62466 211.037C10.0087 210.778 10.5487 210.686 11.2717 210.451C12.5977 210.015 13.8897 209.527 13.8897 209.527C13.8897 209.527 14.2277 209.188 15.5027 209.309C16.5817 208.867 17.6897 208.212 18.2577 208.011C18.1137 206.301 18.2977 206.381 19.0897 205.693C20.0767 204.843 20.2547 204.981 20.9897 205.509C21.2997 205.33 21.4487 205.268 21.4147 205.009C21.2937 204.119 20.5307 203.7 20.7607 201.738C20.4217 200.952 19.9227 199.982 20.0317 199.396C20.1927 198.764 20.3477 198.46 20.7317 198.259C21.1397 198.041 21.2717 198.334 21.4897 198.58C21.8797 199.034 22.1957 200.377 22.1957 200.377C22.3337 201.893 22.8037 203.856 24.3017 202.748C25.1857 201.852 25.3577 199.465 27.1597 199.976L28.4457 201.095C29.5367 200.068 29.5887 200.068 30.2427 199.655C30.2427 199.655 29.2207 198.622 30.1167 197.818C30.7307 197.272 31.4707 196.882 32.7857 195.424C36.3957 191.435 38.2497 189.672 42.1537 186.458C49.9427 180.052 58.8047 175.558 64.4357 173.325C66.2717 170.994 68.0577 169.445 72.1327 169.054C76.9767 160.874 86.2527 153.568 88.3827 152.403C90.1157 149.263 90.8677 149.596 93.1347 148.965C94.9307 147.525 95.3387 147.525 96.1427 146.021C96.9237 142.916 94.3407 134.622 100.935 134.203C102.336 132.223 101.986 132.699 103.547 130.828C102.491 128.222 102.055 126.041 101.768 124.164C101.716 123.946 99.1507 122.138 99.8787 119.778C98.7887 118.481 96.7507 115.454 96.1137 114.036C95.8217 114.042 95.5797 113.932 95.2587 113.887C94.9257 113.835 94.5117 113.853 94.0477 113.813C93.0207 116.464 91.9017 116.66 90.0757 117.245C86.8157 124.193 85.6677 127.133 76.4437 132.878C72.7817 136.977 71.6107 141.545 71.6277 141.477C70.9967 142.831 71.2197 144.726 71.5527 145.742C71.0707 147.246 71.1967 147.395 71.1967 147.395C71.3977 147.963 71.9207 148.715 72.5627 148.875C73.6707 149.168 74.7787 149.122 74.7147 150.356C74.5657 151.9 72.5397 151.647 71.5807 151.475C67.8897 150.889 69.0557 148.484 66.6957 149.287C64.8877 150.47 64.2107 153.96 61.2597 153.506C60.8697 153.248 60.9897 152.485 61.2537 151.934C61.6677 151.073 62.4017 150.361 61.9657 150.039C60.0487 150.642 56.2027 151.916 56.2027 151.916C54.3947 152.41 52.4137 151.509 54.1937 150.32C55.0207 149.999 56.2027 149.597 57.6607 148.662C57.6607 148.662 58.4117 147.64 56.9717 148.151C55.3987 148.714 53.0797 149.063 51.4157 148.88C51.4157 148.88 47.9657 148.427 47.5237 148.156C47.0757 147.886 46.6687 146.819 47.7477 146.825C49.1137 146.837 52.5347 146.434 55.1867 145.728C56.4667 145.229 58.9007 143.789 60.2667 143.111C60.2667 143.111 61.7477 140.953 62.5627 140.528C63.9227 138.961 65.0707 138.037 66.2757 136.435C67.4527 134.007 68.6697 130.162 72.5667 124.209C74.3687 121.465 76.6077 118.269 79.4257 115.412C79.4257 115.412 80.1547 110.838 83.8227 107.583C84.6327 105.677 85.8607 103.433 87.0717 101.355C87.5427 100.557 87.9897 99.8627 88.4377 99.1047C89.5747 97.3197 90.7687 93.9967 95.1997 93.4737C95.1997 93.4737 97.0937 92.0737 97.8227 91.0797C98.9597 90.1097 98.7007 88.6007 99.6247 87.5377C98.2127 86.1607 94.6027 83.5717 94.2517 79.9727C93.8787 76.1557 95.2387 73.0157 97.5467 70.6917C100.107 68.1317 102.805 66.8517 106.082 67.0467C110.174 67.6547 110.949 69.0097 112.252 70.3527C113.503 71.6267 113.968 70.8067 114.496 72.2987C117.929 73.2117 117.739 72.8097 117.71 75.3357C118.238 76.0467 119.122 76.7077 119.11 78.1827C120.264 75.7887 120.493 75.3477 123.576 72.7127C124.305 70.5717 124.799 68.4657 125.441 66.3247C126.041 64.3447 126.788 62.3067 127.367 60.7737C126.753 56.4457 128.015 55.7287 129.697 51.9347C129.399 51.4127 129.463 51.2637 129.589 50.4077C130.243 47.8997 131.265 44.5817 131.873 42.4177C131.873 42.4177 132.074 41.5567 132.964 41.4937C133.733 38.7557 134.887 33.6587 135.082 32.6197C135.874 29.7557 135.363 28.8367 134.755 27.2237C134.56 26.6957 134.651 25.9437 134.313 25.3577C133.355 23.6877 132.322 21.5177 131.622 19.9677C131.168 18.9807 130.45 15.2607 130.45 15.2607C129.84 13.3597 130.374 15.2597 130.374 15.2597Z" fill="black"/>
<path d="M8.52 129V102.72H25.44V107.76H13.848V113.592H24.504V118.632H13.92V129H8.52ZM28.4859 129L34.9299 102.72H41.7699L48.2859 129H42.7779L41.5179 123.06H35.2539L33.9939 129H28.4859ZM36.1539 118.74H40.5819L39.3219 112.404C39.1539 111.492 38.9739 110.592 38.7819 109.704C38.6139 108.792 38.4819 108.084 38.3859 107.58C38.2899 108.084 38.1579 108.78 37.9899 109.668C37.8459 110.556 37.6779 111.456 37.4859 112.368L36.1539 118.74ZM57.2719 129V107.76H50.6119V102.72H69.3319V107.76H62.6719V129H57.2719ZM73.6378 129V102.72H89.8378V107.328H78.9298V113.232H88.5778V117.84H78.9298V124.392H89.8378V129H73.6378ZM103.288 129.36C101.536 129.36 99.9998 129.036 98.6798 128.388C97.3598 127.716 96.3278 126.792 95.5838 125.616C94.8638 124.416 94.5038 123.024 94.5038 121.44V110.28C94.5038 108.672 94.8638 107.28 95.5838 106.104C96.3278 104.928 97.3598 104.016 98.6798 103.368C99.9998 102.696 101.536 102.36 103.288 102.36C105.064 102.36 106.6 102.696 107.896 103.368C109.216 104.016 110.236 104.928 110.956 106.104C111.7 107.28 112.072 108.672 112.072 110.28H106.672C106.672 109.224 106.372 108.42 105.772 107.868C105.196 107.316 104.368 107.04 103.288 107.04C102.208 107.04 101.368 107.316 100.768 107.868C100.192 108.42 99.9038 109.224 99.9038 110.28V121.44C99.9038 122.472 100.192 123.276 100.768 123.852C101.368 124.404 102.208 124.68 103.288 124.68C104.368 124.68 105.196 124.404 105.772 123.852C106.372 123.276 106.672 122.472 106.672 121.44H112.072C112.072 123.024 111.7 124.416 110.956 125.616C110.236 126.792 109.216 127.716 107.896 128.388C106.6 129.036 105.064 129.36 103.288 129.36ZM124.73 129.36C122.882 129.36 121.274 129.048 119.906 128.424C118.538 127.8 117.482 126.924 116.738 125.796C115.994 124.668 115.622 123.336 115.622 121.8H121.022C121.022 122.688 121.358 123.396 122.03 123.924C122.726 124.428 123.662 124.68 124.838 124.68C125.966 124.68 126.842 124.428 127.466 123.924C128.114 123.42 128.438 122.724 128.438 121.836C128.438 121.068 128.198 120.408 127.718 119.856C127.238 119.304 126.566 118.932 125.702 118.74L123.038 118.128C120.806 117.6 119.066 116.628 117.818 115.212C116.594 113.772 115.982 112.02 115.982 109.956C115.982 108.42 116.33 107.088 117.026 105.96C117.746 104.808 118.754 103.92 120.05 103.296C121.346 102.672 122.882 102.36 124.658 102.36C127.346 102.36 129.47 103.032 131.03 104.376C132.614 105.696 133.406 107.484 133.406 109.74H128.006C128.006 108.9 127.706 108.24 127.106 107.76C126.53 107.28 125.69 107.04 124.586 107.04C123.554 107.04 122.762 107.28 122.21 107.76C121.658 108.216 121.382 108.876 121.382 109.74C121.382 110.508 121.598 111.168 122.03 111.72C122.486 112.248 123.122 112.608 123.938 112.8L126.746 113.448C129.074 113.976 130.838 114.936 132.038 116.328C133.238 117.696 133.838 119.448 133.838 121.584C133.838 123.12 133.454 124.476 132.686 125.652C131.942 126.828 130.886 127.74 129.518 128.388C128.174 129.036 126.578 129.36 124.73 129.36ZM137.892 129V102.72H143.292V112.8H149.34V102.72H154.74V129H149.34V117.84H143.292V129H137.892ZM167.902 129.36C166.15 129.36 164.626 129.036 163.33 128.388C162.034 127.716 161.026 126.792 160.306 125.616C159.61 124.416 159.262 123.024 159.262 121.44V110.28C159.262 108.696 159.61 107.316 160.306 106.14C161.026 104.94 162.034 104.016 163.33 103.368C164.626 102.696 166.15 102.36 167.902 102.36C169.678 102.36 171.202 102.696 172.474 103.368C173.77 104.016 174.766 104.94 175.462 106.14C176.182 107.316 176.542 108.696 176.542 110.28V121.44C176.542 123.024 176.182 124.416 175.462 125.616C174.766 126.792 173.77 127.716 172.474 128.388C171.202 129.036 169.678 129.36 167.902 129.36ZM167.902 124.68C168.982 124.68 169.786 124.404 170.314 123.852C170.866 123.276 171.142 122.472 171.142 121.44V110.28C171.142 109.224 170.878 108.42 170.35 107.868C169.822 107.316 169.006 107.04 167.902 107.04C166.798 107.04 165.982 107.316 165.454 107.868C164.926 108.42 164.662 109.224 164.662 110.28V121.44C164.662 122.472 164.926 123.276 165.454 123.852C166.006 124.404 166.822 124.68 167.902 124.68ZM181.568 129V102.72H197.768V107.328H186.86V113.232H196.508V117.84H186.86V124.392H197.768V129H181.568ZM211.073 129.36C209.225 129.36 207.617 129.048 206.249 128.424C204.881 127.8 203.825 126.924 203.081 125.796C202.337 124.668 201.965 123.336 201.965 121.8H207.365C207.365 122.688 207.701 123.396 208.373 123.924C209.069 124.428 210.005 124.68 211.181 124.68C212.309 124.68 213.185 124.428 213.809 123.924C214.457 123.42 214.781 122.724 214.781 121.836C214.781 121.068 214.541 120.408 214.061 119.856C213.581 119.304 212.909 118.932 212.045 118.74L209.381 118.128C207.149 117.6 205.409 116.628 204.161 115.212C202.937 113.772 202.325 112.02 202.325 109.956C202.325 108.42 202.673 107.088 203.369 105.96C204.089 104.808 205.097 103.92 206.393 103.296C207.689 102.672 209.225 102.36 211.001 102.36C213.689 102.36 215.813 103.032 217.373 104.376C218.957 105.696 219.749 107.484 219.749 109.74H214.349C214.349 108.9 214.049 108.24 213.449 107.76C212.873 107.28 212.033 107.04 210.929 107.04C209.897 107.04 209.105 107.28 208.553 107.76C208.001 108.216 207.725 108.876 207.725 109.74C207.725 110.508 207.941 111.168 208.373 111.72C208.829 112.248 209.465 112.608 210.281 112.8L213.089 113.448C215.417 113.976 217.181 114.936 218.381 116.328C219.581 117.696 220.181 119.448 220.181 121.584C220.181 123.12 219.797 124.476 219.029 125.652C218.285 126.828 217.229 127.74 215.861 128.388C214.517 129.036 212.921 129.36 211.073 129.36Z" fill="#7159C1"/>
</svg>
